<mxfile host="app.diagrams.net" modified="2024-03-22T19:42:21.388Z" agent="Mozilla/5.0 (X11; Linux x86_64) AppleWebKit/537.36 (KHTML, like Gecko) Chrome/113.0.0.0 Safari/537.36" etag="eT96F3eyhntqvBihlEJ3" version="22.1.16" type="google">
  <diagram name="Página-1" id="AGbVfznFCcCZ1xgvznZ3">
    <mxGraphModel grid="1" page="1" gridSize="10" guides="1" tooltips="1" connect="1" arrows="1" fold="1" pageScale="1" pageWidth="827" pageHeight="1169" math="0" shadow="0">
      <root>
        <mxCell id="0" />
        <mxCell id="1" parent="0" />
        <mxCell id="cJWLnQ_IUFdNWgAchENH-17" value="Administrador" style="shape=umlActor;verticalLabelPosition=bottom;verticalAlign=top;html=1;outlineConnect=0;strokeColor=#00FFFF;" vertex="1" parent="1">
          <mxGeometry x="-320" y="295" width="30" height="60" as="geometry" />
        </mxCell>
        <mxCell id="cJWLnQ_IUFdNWgAchENH-19" value="Iniciar sesión" style="ellipse;whiteSpace=wrap;html=1;" vertex="1" parent="1">
          <mxGeometry x="-140" y="110" width="130" height="50" as="geometry" />
        </mxCell>
        <mxCell id="cJWLnQ_IUFdNWgAchENH-21" value="Recuperar contraseña" style="ellipse;whiteSpace=wrap;html=1;" vertex="1" parent="1">
          <mxGeometry x="290" y="30" width="130" height="50" as="geometry" />
        </mxCell>
        <mxCell id="cJWLnQ_IUFdNWgAchENH-22" value="Modificar datos personales" style="ellipse;whiteSpace=wrap;html=1;" vertex="1" parent="1">
          <mxGeometry x="170" width="130" height="50" as="geometry" />
        </mxCell>
        <mxCell id="cJWLnQ_IUFdNWgAchENH-24" value="Seguir usuarios&amp;nbsp;" style="ellipse;whiteSpace=wrap;html=1;" vertex="1" parent="1">
          <mxGeometry x="30" y="410" width="130" height="50" as="geometry" />
        </mxCell>
        <mxCell id="cJWLnQ_IUFdNWgAchENH-25" value="Eliminar cuenta" style="ellipse;whiteSpace=wrap;html=1;" vertex="1" parent="1">
          <mxGeometry x="20" width="130" height="50" as="geometry" />
        </mxCell>
        <mxCell id="cJWLnQ_IUFdNWgAchENH-37" value="Visualizar mensajes publicos" style="ellipse;whiteSpace=wrap;html=1;" vertex="1" parent="1">
          <mxGeometry x="390" y="260" width="130" height="50" as="geometry" />
        </mxCell>
        <mxCell id="cJWLnQ_IUFdNWgAchENH-38" value="Publicar mensajes publicos" style="ellipse;whiteSpace=wrap;html=1;" vertex="1" parent="1">
          <mxGeometry x="380" y="200" width="125" height="50" as="geometry" />
        </mxCell>
        <mxCell id="cJWLnQ_IUFdNWgAchENH-40" value="Dejar de seguir usuarios" style="ellipse;whiteSpace=wrap;html=1;" vertex="1" parent="1">
          <mxGeometry x="320" y="420" width="130" height="50" as="geometry" />
        </mxCell>
        <mxCell id="cJWLnQ_IUFdNWgAchENH-43" value="Enviar mensaje privado" style="ellipse;whiteSpace=wrap;html=1;" vertex="1" parent="1">
          <mxGeometry x="320" y="85" width="130" height="50" as="geometry" />
        </mxCell>
        <mxCell id="cJWLnQ_IUFdNWgAchENH-44" value="Visualizar temas del momento" style="ellipse;whiteSpace=wrap;html=1;" vertex="1" parent="1">
          <mxGeometry x="390" y="320" width="130" height="50" as="geometry" />
        </mxCell>
        <mxCell id="cJWLnQ_IUFdNWgAchENH-46" value="Modificar n dias" style="ellipse;whiteSpace=wrap;html=1;" vertex="1" parent="1">
          <mxGeometry x="-140" y="330" width="130" height="50" as="geometry" />
        </mxCell>
        <mxCell id="cJWLnQ_IUFdNWgAchENH-47" value="Iniciar sesion como administrador" style="ellipse;whiteSpace=wrap;html=1;" vertex="1" parent="1">
          <mxGeometry x="-140" y="260" width="130" height="50" as="geometry" />
        </mxCell>
        <mxCell id="cJWLnQ_IUFdNWgAchENH-48" value="Re-publicar mensajes publico" style="ellipse;whiteSpace=wrap;html=1;" vertex="1" parent="1">
          <mxGeometry x="349" y="140" width="130" height="50" as="geometry" />
        </mxCell>
        <mxCell id="cJWLnQ_IUFdNWgAchENH-49" value="Visualizar seguidores" style="ellipse;whiteSpace=wrap;html=1;" vertex="1" parent="1">
          <mxGeometry x="170" y="430" width="130" height="50" as="geometry" />
        </mxCell>
        <mxCell id="cJWLnQ_IUFdNWgAchENH-50" value="Enviar correo semanal" style="ellipse;whiteSpace=wrap;html=1;" vertex="1" parent="1">
          <mxGeometry x="-140" y="-110" width="130" height="50" as="geometry" />
        </mxCell>
        <mxCell id="6BTliModNfIDD3tPD0Go-37" value="&lt;b&gt;&lt;font style=&quot;font-size: 12px;&quot;&gt;Ext&lt;/font&gt;&lt;/b&gt;" style="endArrow=open;endSize=12;dashed=1;html=1;rounded=0;exitX=0.069;exitY=0.76;exitDx=0;exitDy=0;exitPerimeter=0;entryX=1;entryY=0;entryDx=0;entryDy=0;" edge="1" parent="1" source="cJWLnQ_IUFdNWgAchENH-21" target="cJWLnQ_IUFdNWgAchENH-19">
          <mxGeometry width="160" relative="1" as="geometry">
            <mxPoint x="510" y="90" as="sourcePoint" />
            <mxPoint x="490" y="180" as="targetPoint" />
            <Array as="points" />
          </mxGeometry>
        </mxCell>
        <mxCell id="6BTliModNfIDD3tPD0Go-38" value="&lt;b&gt;&lt;font style=&quot;font-size: 12px;&quot;&gt;Ext&lt;/font&gt;&lt;/b&gt;" style="endArrow=open;endSize=12;dashed=1;html=1;rounded=0;entryX=1;entryY=0;entryDx=0;entryDy=0;exitX=0;exitY=1;exitDx=0;exitDy=0;" edge="1" parent="1" source="cJWLnQ_IUFdNWgAchENH-22" target="cJWLnQ_IUFdNWgAchENH-19">
          <mxGeometry width="160" relative="1" as="geometry">
            <mxPoint x="420" y="30" as="sourcePoint" />
            <mxPoint x="346" y="20" as="targetPoint" />
          </mxGeometry>
        </mxCell>
        <mxCell id="6BTliModNfIDD3tPD0Go-39" value="&lt;b&gt;&lt;font style=&quot;font-size: 12px;&quot;&gt;Ext&lt;br&gt;&lt;/font&gt;&lt;/b&gt;" style="endArrow=open;endSize=12;dashed=1;html=1;rounded=0;exitX=0.271;exitY=1.053;exitDx=0;exitDy=0;exitPerimeter=0;entryX=1;entryY=0;entryDx=0;entryDy=0;" edge="1" parent="1" source="cJWLnQ_IUFdNWgAchENH-25" target="cJWLnQ_IUFdNWgAchENH-19">
          <mxGeometry width="160" relative="1" as="geometry">
            <mxPoint x="262.6300000000001" y="74.65000000000009" as="sourcePoint" />
            <mxPoint x="-70" y="110" as="targetPoint" />
          </mxGeometry>
        </mxCell>
        <mxCell id="6BTliModNfIDD3tPD0Go-50" value="&lt;b&gt;&lt;font style=&quot;font-size: 12px;&quot;&gt;Ext&lt;/font&gt;&lt;/b&gt;" style="endArrow=open;endSize=12;dashed=1;html=1;rounded=0;exitX=0.5;exitY=0;exitDx=0;exitDy=0;" edge="1" parent="1" source="cJWLnQ_IUFdNWgAchENH-24">
          <mxGeometry width="160" relative="1" as="geometry">
            <mxPoint x="210" y="380" as="sourcePoint" />
            <mxPoint x="-30" y="150" as="targetPoint" />
          </mxGeometry>
        </mxCell>
        <mxCell id="6BTliModNfIDD3tPD0Go-51" value="&lt;b&gt;&lt;font style=&quot;font-size: 12px;&quot;&gt;Ext&lt;/font&gt;&lt;/b&gt;" style="endArrow=open;endSize=12;dashed=1;html=1;rounded=0;" edge="1" parent="1" source="cJWLnQ_IUFdNWgAchENH-49">
          <mxGeometry width="160" relative="1" as="geometry">
            <mxPoint x="210" y="370" as="sourcePoint" />
            <mxPoint x="-30" y="150" as="targetPoint" />
          </mxGeometry>
        </mxCell>
        <mxCell id="aVYZeMnTpxY4eWr6kD3J-3" value="&lt;b&gt;&lt;font style=&quot;font-size: 12px;&quot;&gt;&amp;lt;i&amp;gt;&lt;/font&gt;&lt;/b&gt;" style="endArrow=none;html=1;rounded=0;entryX=0;entryY=0.5;entryDx=0;entryDy=0;" edge="1" parent="1" target="cJWLnQ_IUFdNWgAchENH-50">
          <mxGeometry width="50" height="50" relative="1" as="geometry">
            <mxPoint x="-280" y="80" as="sourcePoint" />
            <mxPoint x="-150" y="440" as="targetPoint" />
          </mxGeometry>
        </mxCell>
        <mxCell id="6BTliModNfIDD3tPD0Go-52" value="&lt;b&gt;&lt;font style=&quot;font-size: 12px;&quot;&gt;Ext&lt;/font&gt;&lt;/b&gt;" style="endArrow=open;endSize=12;dashed=1;html=1;rounded=0;entryX=1;entryY=1;entryDx=0;entryDy=0;" edge="1" parent="1" source="cJWLnQ_IUFdNWgAchENH-40" target="cJWLnQ_IUFdNWgAchENH-19">
          <mxGeometry width="160" relative="1" as="geometry">
            <mxPoint x="290" y="350" as="sourcePoint" />
            <mxPoint x="-40" y="160" as="targetPoint" />
          </mxGeometry>
        </mxCell>
        <mxCell id="6BTliModNfIDD3tPD0Go-53" value="Usuario" style="shape=umlActor;verticalLabelPosition=bottom;verticalAlign=top;html=1;outlineConnect=0;strokeColor=#FF66B3;" vertex="1" parent="1">
          <mxGeometry x="-320" y="70" width="30" height="60" as="geometry" />
        </mxCell>
        <mxCell id="6BTliModNfIDD3tPD0Go-54" value="Registrar usuario" style="ellipse;whiteSpace=wrap;html=1;" vertex="1" parent="1">
          <mxGeometry x="-140" width="130" height="50" as="geometry" />
        </mxCell>
        <mxCell id="6BTliModNfIDD3tPD0Go-55" value="&lt;b&gt;&lt;font style=&quot;font-size: 12px;&quot;&gt;&amp;lt;i&amp;gt;&lt;/font&gt;&lt;/b&gt;" style="endArrow=none;html=1;rounded=0;entryX=0;entryY=0.5;entryDx=0;entryDy=0;" edge="1" parent="1" target="6BTliModNfIDD3tPD0Go-54">
          <mxGeometry width="50" height="50" relative="1" as="geometry">
            <mxPoint x="-280" y="100" as="sourcePoint" />
            <mxPoint x="-180.05999999999995" y="165" as="targetPoint" />
          </mxGeometry>
        </mxCell>
        <mxCell id="cIb_4sa-lIodhiWon8PE-3" style="edgeStyle=orthogonalEdgeStyle;rounded=0;orthogonalLoop=1;jettySize=auto;html=1;exitX=0.5;exitY=1;exitDx=0;exitDy=0;" edge="1" parent="1" source="cJWLnQ_IUFdNWgAchENH-50" target="cJWLnQ_IUFdNWgAchENH-50">
          <mxGeometry relative="1" as="geometry" />
        </mxCell>
        <mxCell id="6BTliModNfIDD3tPD0Go-56" value="&lt;b&gt;&lt;font style=&quot;font-size: 12px;&quot;&gt;Ext&lt;/font&gt;&lt;/b&gt;" style="endArrow=open;endSize=12;dashed=1;html=1;rounded=0;exitX=0.019;exitY=0.344;exitDx=0;exitDy=0;exitPerimeter=0;entryX=1;entryY=0.5;entryDx=0;entryDy=0;" edge="1" parent="1" source="cJWLnQ_IUFdNWgAchENH-44" target="cJWLnQ_IUFdNWgAchENH-19">
          <mxGeometry width="160" relative="1" as="geometry">
            <mxPoint x="319" y="280" as="sourcePoint" />
            <mxPoint y="140" as="targetPoint" />
          </mxGeometry>
        </mxCell>
        <mxCell id="eiv5Tc3VF9W6wTadFtQy-1" value="&lt;b&gt;&lt;font style=&quot;font-size: 12px;&quot;&gt;&amp;lt;i&amp;gt;&lt;/font&gt;&lt;/b&gt;" style="endArrow=none;html=1;rounded=0;exitX=0.5;exitY=0.5;exitDx=0;exitDy=0;exitPerimeter=0;entryX=0;entryY=0.5;entryDx=0;entryDy=0;" edge="1" parent="1" source="cJWLnQ_IUFdNWgAchENH-17" target="cJWLnQ_IUFdNWgAchENH-47">
          <mxGeometry width="50" height="50" relative="1" as="geometry">
            <mxPoint x="-290" y="245.5" as="sourcePoint" />
            <mxPoint x="-140" y="244.5" as="targetPoint" />
          </mxGeometry>
        </mxCell>
        <mxCell id="6BTliModNfIDD3tPD0Go-57" value="&lt;b&gt;&lt;font style=&quot;font-size: 12px;&quot;&gt;Ext&lt;/font&gt;&lt;/b&gt;" style="endArrow=open;endSize=12;dashed=1;html=1;rounded=0;entryX=1;entryY=0.5;entryDx=0;entryDy=0;exitX=0;exitY=0.5;exitDx=0;exitDy=0;" edge="1" parent="1" source="cJWLnQ_IUFdNWgAchENH-43" target="cJWLnQ_IUFdNWgAchENH-19">
          <mxGeometry width="160" relative="1" as="geometry">
            <mxPoint x="280" y="120" as="sourcePoint" />
            <mxPoint x="210" y="90" as="targetPoint" />
          </mxGeometry>
        </mxCell>
        <mxCell id="eiv5Tc3VF9W6wTadFtQy-2" value="&lt;b&gt;&lt;font style=&quot;font-size: 12px;&quot;&gt;&amp;lt;i&amp;gt;&lt;/font&gt;&lt;/b&gt;" style="endArrow=none;html=1;rounded=0;exitX=0.5;exitY=0.5;exitDx=0;exitDy=0;exitPerimeter=0;entryX=0;entryY=0.5;entryDx=0;entryDy=0;" edge="1" parent="1" source="cJWLnQ_IUFdNWgAchENH-17" target="cJWLnQ_IUFdNWgAchENH-46">
          <mxGeometry width="50" height="50" relative="1" as="geometry">
            <mxPoint x="-295" y="255" as="sourcePoint" />
            <mxPoint x="-130" y="255" as="targetPoint" />
          </mxGeometry>
        </mxCell>
        <mxCell id="cIb_4sa-lIodhiWon8PE-5" value="&lt;b&gt;&lt;font style=&quot;font-size: 12px;&quot;&gt;&amp;lt;i&amp;gt;&lt;/font&gt;&lt;/b&gt;" style="endArrow=none;html=1;rounded=0;entryX=0;entryY=0.5;entryDx=0;entryDy=0;" edge="1" parent="1" target="cJWLnQ_IUFdNWgAchENH-19">
          <mxGeometry width="50" height="50" relative="1" as="geometry">
            <mxPoint x="-280" y="120" as="sourcePoint" />
            <mxPoint x="-130" y="35" as="targetPoint" />
          </mxGeometry>
        </mxCell>
        <mxCell id="FZm8NnTP5xWnFuiFoCo--1" value="&lt;b&gt;&lt;font style=&quot;font-size: 12px;&quot;&gt;Ext&lt;/font&gt;&lt;/b&gt;" style="endArrow=open;endSize=12;dashed=1;html=1;rounded=0;exitX=-0.023;exitY=0.36;exitDx=0;exitDy=0;exitPerimeter=0;entryX=1;entryY=0.5;entryDx=0;entryDy=0;" edge="1" parent="1" source="cJWLnQ_IUFdNWgAchENH-37" target="cJWLnQ_IUFdNWgAchENH-19">
          <mxGeometry width="160" relative="1" as="geometry">
            <mxPoint x="434" y="332" as="sourcePoint" />
            <mxPoint x="30" y="140" as="targetPoint" />
          </mxGeometry>
        </mxCell>
        <mxCell id="FZm8NnTP5xWnFuiFoCo--2" value="&lt;b&gt;&lt;font style=&quot;font-size: 12px;&quot;&gt;Ext&lt;/font&gt;&lt;/b&gt;" style="endArrow=open;endSize=12;dashed=1;html=1;rounded=0;exitX=0;exitY=0.5;exitDx=0;exitDy=0;entryX=1;entryY=0.5;entryDx=0;entryDy=0;" edge="1" parent="1" source="cJWLnQ_IUFdNWgAchENH-38" target="cJWLnQ_IUFdNWgAchENH-19">
          <mxGeometry width="160" relative="1" as="geometry">
            <mxPoint x="397" y="288" as="sourcePoint" />
            <mxPoint y="145" as="targetPoint" />
          </mxGeometry>
        </mxCell>
        <mxCell id="FZm8NnTP5xWnFuiFoCo--3" value="&lt;b&gt;&lt;font style=&quot;font-size: 12px;&quot;&gt;Ext&lt;/font&gt;&lt;/b&gt;" style="endArrow=open;endSize=12;dashed=1;html=1;rounded=0;exitX=0;exitY=0.5;exitDx=0;exitDy=0;" edge="1" parent="1" source="cJWLnQ_IUFdNWgAchENH-48">
          <mxGeometry width="160" relative="1" as="geometry">
            <mxPoint x="390" y="235" as="sourcePoint" />
            <mxPoint x="-10" y="135" as="targetPoint" />
          </mxGeometry>
        </mxCell>
        <mxCell id="e9rruPI4VbP_qudpQCCr-2" value="" style="ellipse;whiteSpace=wrap;html=1;align=center;dashed=1;fillColor=none;strokeColor=#CC0066;" vertex="1" parent="1">
          <mxGeometry x="250" y="80" width="340" height="300" as="geometry" />
        </mxCell>
        <mxCell id="e9rruPI4VbP_qudpQCCr-3" value="" style="ellipse;whiteSpace=wrap;html=1;align=center;dashed=1;fillColor=none;strokeColor=#4C0099;" vertex="1" parent="1">
          <mxGeometry x="9.5" y="380" width="451" height="150" as="geometry" />
        </mxCell>
        <mxCell id="e9rruPI4VbP_qudpQCCr-4" value="" style="ellipse;whiteSpace=wrap;html=1;align=center;dashed=1;fillColor=none;strokeColor=#009900;" vertex="1" parent="1">
          <mxGeometry x="-150" y="-30" width="629" height="120" as="geometry" />
        </mxCell>
        <mxCell id="e9rruPI4VbP_qudpQCCr-5" value="&lt;b&gt;&lt;font style=&quot;font-size: 14px;&quot;&gt;GESTIÓN USUARIO&lt;/font&gt;&lt;/b&gt;" style="text;html=1;align=center;verticalAlign=middle;resizable=0;points=[];autosize=1;strokeColor=none;fillColor=none;" vertex="1" parent="1">
          <mxGeometry x="295" y="-10" width="150" height="30" as="geometry" />
        </mxCell>
        <mxCell id="e9rruPI4VbP_qudpQCCr-6" value="&lt;b style=&quot;border-color: var(--border-color); color: rgb(0, 0, 0); font-family: Helvetica; font-size: 12px; font-style: normal; font-variant-ligatures: normal; font-variant-caps: normal; letter-spacing: normal; orphans: 2; text-align: center; text-indent: 0px; text-transform: none; widows: 2; word-spacing: 0px; -webkit-text-stroke-width: 0px; background-color: rgb(251, 251, 251); text-decoration-thickness: initial; text-decoration-style: initial; text-decoration-color: initial;&quot;&gt;&lt;font style=&quot;border-color: var(--border-color); font-size: 14px;&quot;&gt;GESTIÓN MENZAJES&lt;/font&gt;&lt;/b&gt;" style="text;whiteSpace=wrap;html=1;rotation=90;" vertex="1" parent="1">
          <mxGeometry x="450" y="177.5" width="160" height="40" as="geometry" />
        </mxCell>
        <mxCell id="e9rruPI4VbP_qudpQCCr-7" value="&lt;b style=&quot;border-color: var(--border-color); color: rgb(0, 0, 0); font-family: Helvetica; font-size: 12px; font-style: normal; font-variant-ligatures: normal; font-variant-caps: normal; letter-spacing: normal; orphans: 2; text-align: center; text-indent: 0px; text-transform: none; widows: 2; word-spacing: 0px; -webkit-text-stroke-width: 0px; background-color: rgb(251, 251, 251); text-decoration-thickness: initial; text-decoration-style: initial; text-decoration-color: initial;&quot;&gt;&lt;font style=&quot;border-color: var(--border-color); font-size: 14px;&quot;&gt;GESTIÓN SEGUIDORES&lt;/font&gt;&lt;/b&gt;" style="text;whiteSpace=wrap;html=1;" vertex="1" parent="1">
          <mxGeometry x="160" y="490" width="190" height="40" as="geometry" />
        </mxCell>
        <mxCell id="0CF5-ZvZcoqceBKv54wu-1" value="" style="ellipse;whiteSpace=wrap;html=1;align=center;dashed=1;fillColor=none;strokeColor=#4C0099;" vertex="1" parent="1">
          <mxGeometry x="9.5" y="380" width="451" height="150" as="geometry" />
        </mxCell>
        <mxCell id="0CF5-ZvZcoqceBKv54wu-2" value="" style="ellipse;whiteSpace=wrap;html=1;align=center;dashed=1;fillColor=none;strokeColor=#4C0099;" vertex="1" parent="1">
          <mxGeometry x="10" y="380" width="450.5" height="150" as="geometry" />
        </mxCell>
      </root>
    </mxGraphModel>
  </diagram>
</mxfile>
